<?xml version="1.0" standalone="no"?>
<!DOCTYPE svg PUBLIC "-//W3C//DTD SVG 20010904//EN"
 "http://www.w3.org/TR/2001/REC-SVG-20010904/DTD/svg10.dtd">
<svg version="1.0" xmlns="http://www.w3.org/2000/svg"
 width="5300.000000pt" height="4240.000000pt" viewBox="0 0 5300.000000 4240.000000"
 preserveAspectRatio="xMidYMid meet">

<g transform="translate(0.000000,4240.000000) scale(0.100000,-0.100000)"
fill="#000000" stroke="none">
<path d="M25040 32479 c-2154 -53 -4256 -844 -5918 -2227 -280 -232 -688 -619
-858 -812 -46 -52 -132 -147 -191 -210 -595 -641 -1343 -1770 -1718 -2595
-410 -905 -694 -2031 -800 -3180 -35 -389 -40 -509 -40 -1065 0 -574 4 -674
45 -1096 85 -869 274 -1687 550 -2379 319 -800 859 -1742 1401 -2441 1490
-1923 3752 -3326 6108 -3788 590 -116 1042 -160 1636 -161 387 0 550 9 874 46
414 48 1031 178 1039 219 2 10 -38 35 -125 79 -287 143 -626 342 -938 551 -88
59 -170 113 -183 119 -18 10 -57 10 -167 2 -184 -14 -683 -14 -873 -1 -1557
112 -3161 715 -4551 1713 -435 312 -991 789 -1280 1097 -803 857 -1540 2012
-1981 3105 -184 457 -287 856 -375 1460 -241 1652 -39 3459 562 5030 328 855
881 1745 1562 2510 141 158 494 515 651 656 1246 1128 2759 1884 4355 2180 94
17 184 37 200 44 17 6 104 68 195 136 379 285 727 498 1175 719 234 116 472
222 548 245 21 6 39 15 40 21 4 20 -532 33 -943 23z"/>
<path d="M28410 32330 c-1613 -103 -3032 -680 -4064 -1652 -274 -259 -438
-454 -766 -915 -204 -285 -453 -725 -559 -986 -104 -256 -247 -648 -1771
-4867 -854 -2362 -1724 -4770 -1934 -5351 -315 -871 -380 -1061 -374 -1085 17
-64 682 -831 713 -821 5 2 17 16 25 33 8 16 465 1245 1015 2731 l1000 2703
1390 2 c1311 3 1390 4 1393 20 5 26 -346 969 -370 995 l-21 23 -1002 2 -1002
3 499 1345 c486 1313 665 1795 738 1992 l36 97 118 -317 c689 -1845 1135
-3037 1180 -3157 15 -38 365 -976 526 -1410 43 -115 196 -525 340 -910 144
-385 306 -820 361 -966 l99 -267 0 -1536 c0 -1527 0 -1537 20 -1577 26 -49
265 -296 421 -434 218 -192 500 -405 537 -405 l22 0 0 1958 c0 1891 -1 1963
-20 2099 -15 110 -29 169 -66 270 -25 70 -233 637 -462 1258 -228 622 -432
1177 -452 1235 -21 58 -462 1262 -980 2675 -518 1414 -976 2662 -1017 2774
l-74 204 102 276 c134 363 161 430 216 531 408 760 1469 1613 2538 2040 174
69 462 166 595 200 599 151 1350 180 2055 79 1496 -214 3071 -931 4060 -1848
266 -246 651 -652 881 -926 1241 -1485 1989 -3283 2158 -5190 50 -564 45
-1275 -14 -1805 -26 -235 -41 -346 -50 -365 -4 -11 -16 -69 -25 -130 -58 -380
-216 -1009 -336 -1335 -122 -334 -146 -395 -214 -555 -425 -995 -977 -1873
-1683 -2675 -168 -191 -551 -575 -732 -734 -898 -788 -1856 -1314 -2838 -1560
-818 -205 -1623 -202 -2357 9 -150 43 -380 125 -484 172 -321 146 -558 283
-865 498 -361 254 -597 457 -890 765 -966 1015 -1447 2401 -1265 3646 53 367
141 661 301 1013 39 84 71 163 71 176 0 31 -450 1246 -469 1265 -12 12 -21 8
-70 -40 -107 -105 -310 -379 -428 -577 -179 -301 -297 -647 -415 -1227 -84
-407 -118 -826 -107 -1296 7 -294 32 -696 45 -725 5 -11 19 -81 31 -155 65
-394 196 -789 404 -1215 538 -1100 1488 -2098 2641 -2775 355 -208 855 -432
1235 -554 498 -160 1089 -258 1410 -234 913 70 1127 108 1730 313 91 31 237
80 325 109 197 65 487 180 709 281 1521 689 2836 1827 3794 3285 838 1274
1381 2761 1576 4315 61 481 80 794 80 1320 0 534 -18 839 -80 1335 -197 1583
-763 3115 -1629 4410 -300 449 -681 949 -934 1225 -315 345 -505 533 -763 756
-1088 939 -2520 1701 -3693 1964 -266 59 -738 130 -1075 161 -205 18 -837 27
-1040 14z"/>
<path d="M27673 30320 c-12 -5 -26 -18 -32 -29 -7 -13 -11 -191 -11 -540 0
-287 1 -522 3 -523 1 -1 481 -5 1067 -8 1160 -7 1108 -4 1390 -67 247 -54 461
-129 695 -242 357 -173 645 -379 921 -662 474 -487 781 -1100 885 -1769 30
-194 37 -581 14 -780 -39 -344 -126 -648 -270 -945 -385 -797 -1099 -1349
-1980 -1534 -263 -55 -229 -54 -1510 -58 -829 -3 -1193 -7 -1202 -15 -10 -8
-13 -113 -13 -509 0 -473 1 -499 18 -508 12 -6 425 -11 1118 -14 1160 -4 1131
-3 1409 -51 565 -98 1107 -348 1535 -707 311 -261 561 -578 735 -934 202 -411
288 -775 288 -1225 0 -360 -62 -695 -189 -1023 -61 -159 -199 -427 -291 -567
-612 -930 -1663 -1502 -2823 -1537 -214 -6 -213 -6 -1125 68 -467 38 -627 48
-647 40 l-28 -11 0 -442 c0 -423 1 -444 20 -475 23 -38 41 -47 270 -123 289
-97 554 -137 1045 -159 1772 -79 3490 826 4348 2290 237 404 413 886 491 1344
41 235 50 357 50 635 1 435 -51 765 -180 1163 -295 903 -933 1679 -1799 2186
-49 29 -91 54 -92 55 -2 2 52 38 120 82 634 409 1144 971 1466 1612 602 1201
532 2586 -192 3767 -182 298 -366 527 -651 811 -375 373 -741 635 -1231 879
-496 247 -982 401 -1540 485 -125 19 -219 23 -860 35 -835 16 -1191 17 -1222
5z"/>
<path d="M26694 30140 c-359 -180 -672 -379 -700 -445 -12 -30 -14 -452 -14
-3007 0 -2070 3 -2985 11 -3013 25 -96 553 -1521 567 -1532 12 -10 71 -13 219
-13 l203 0 0 4059 c0 3692 -1 4059 -16 4065 -9 3 -19 6 -24 6 -4 0 -115 -54
-246 -120z"/>
<path d="M10610 11740 c0 -5 7 -10 15 -10 8 0 15 5 15 10 0 6 -7 10 -15 10 -8
0 -15 -4 -15 -10z"/>
</g>
</svg>
